<?xml version="1.0" encoding="UTF-8" standalone="no"?>
<!-- Created with Inkscape (http://www.inkscape.org/) -->

<svg
   width="351.28403mm"
   height="330.13467mm"
   viewBox="0 0 351.28403 330.13468"
   version="1.1"
   id="svg1"
   xml:space="preserve"
   inkscape:version="1.4.3 (0d15f75, 2025-12-25)"
   sodipodi:docname="icon.svg"
   xmlns:inkscape="http://www.inkscape.org/namespaces/inkscape"
   xmlns:sodipodi="http://sodipodi.sourceforge.net/DTD/sodipodi-0.dtd"
   xmlns="http://www.w3.org/2000/svg"
   xmlns:svg="http://www.w3.org/2000/svg"><sodipodi:namedview
     id="namedview1"
     pagecolor="#505050"
     bordercolor="#eeeeee"
     borderopacity="1"
     inkscape:showpageshadow="0"
     inkscape:pageopacity="0"
     inkscape:pagecheckerboard="0"
     inkscape:deskcolor="#505050"
     inkscape:document-units="mm"
     inkscape:zoom="0.42550068"
     inkscape:cx="665.09882"
     inkscape:cy="626.32098"
     inkscape:window-width="1440"
     inkscape:window-height="900"
     inkscape:window-x="0"
     inkscape:window-y="0"
     inkscape:window-maximized="0"
     inkscape:current-layer="layer1"
     showgrid="false" /><defs
     id="defs1" /><g
     inkscape:label="Layer 1"
     inkscape:groupmode="layer"
     id="layer1"
     transform="translate(-298.5387,829.73335)"><path
       style="fill:#000000"
       d="m 378.72437,-736.50353 c -2.21897,-1.58302 -4.32807,-3.36214 -6.74471,-5.68949 l -1.47972,-1.42504 -0.15273,-2.90712 c -0.084,-1.59893 -0.0697,-3.56198 0.0317,-4.36234 l 0.18443,-1.45521 0.62557,1.19062 c 2.61225,4.9718 6.76994,11.76566 8.94604,14.61823 0.63831,0.83675 1.05231,1.52136 0.91999,1.52136 -0.13231,0 -1.18107,-0.67096 -2.33057,-1.49101 z"
       id="path28" /><path
       style="fill:#000000"
       d="m 371.73959,-708.18128 c -1.09141,-0.79105 -4.64413,-3.25239 -7.89494,-5.46965 -12.63095,-8.61512 -18.86376,-13.36433 -24.36557,-18.56583 -11.45666,-10.8313 -19.65918,-22.99866 -23.82385,-35.33951 -3.70062,-10.96578 -3.86547,-22.33778 -0.49669,-34.26354 1.04801,-3.71006 2.87577,-8.06979 3.38316,-8.06979 0.13146,0 0.79694,1.75617 1.47885,3.9026 3.62697,11.41671 10.84325,25.92297 17.66992,35.52031 6.47513,9.10313 17.16265,20.88629 25.44098,28.04909 1.59568,1.38066 3.47834,3.04705 4.18368,3.70309 l 1.28246,1.1928 0.75484,3.62625 c 1.36658,6.56508 3.47049,12.55234 5.7848,16.46226 0.59791,1.01014 1.03274,1.89099 0.96629,1.95744 -0.0664,0.0665 -0.68856,-0.32191 -1.38248,-0.86301 l -1.26166,-0.98383 -0.0727,2.46597 c -0.0443,1.50277 0.11529,3.57695 0.40855,5.31025 0.31028,1.83394 0.38309,2.83701 0.20497,2.82382 -0.15194,-0.0112 -1.16923,-0.66767 -2.26063,-1.45872 z"
       id="path27" /><path
       style="fill:#000000"
       d="m 448.86563,-695.76384 c -5.62308,-4.21618 -13.10072,-8.59388 -27.32764,-15.99866 -18.58329,-9.67217 -24.14953,-12.75303 -28.86044,-15.97398 -1.74178,-1.19089 -2.1731,-1.67939 -4.32184,-4.89479 -2.41355,-3.61166 -5.40559,-9.40493 -6.64666,-12.86947 -1.04808,-2.92581 -2.51388,-8.69178 -2.98673,-11.74882 -0.87666,-5.66776 -0.43753,-14.80659 0.97366,-20.26327 0.84064,-3.2505 2.87764,-9.5828 3.13352,-9.74094 0.26322,-0.16268 0.33348,0.0997 0.95267,3.55792 3.06377,17.11132 9.13584,30.6806 20.60115,46.03749 3.88916,5.20923 7.38613,8.74916 8.17996,8.28046 0.26391,-0.15582 -0.97852,-2.42308 -3.98614,-7.27416 -6.09814,-9.83585 -11.01157,-20.11345 -13.15939,-27.52596 -1.69895,-5.86339 -2.81347,-13.41996 -2.82016,-19.12096 -0.013,-11.03616 3.44933,-22.31133 9.18243,-29.90319 3.0414,-4.02747 2.83691,-4.04789 2.70123,0.26986 -0.19769,6.29073 0.25564,11.19207 1.94552,21.03437 0.98725,5.75007 1.64964,8.38528 3.81861,15.19178 3.84543,12.06743 9.23848,22.97541 17.00728,34.39891 3.15215,4.63502 7.96272,10.62339 13.95544,17.37221 6.79874,7.65653 10.03077,11.69463 12.63105,15.78122 1.78845,2.81073 1.85083,3.05852 1.3841,5.49792 -0.85193,4.45265 -2.7484,9.94534 -3.41719,9.89714 -0.16203,-0.0117 -1.48523,-0.91396 -2.94043,-2.00508 z"
       id="path26" /><path
       style="fill:#000000"
       d="m 561.8427,-692.85425 c -1.26166,-0.66513 -1.93846,-1.40683 -2.40971,-2.64078 -0.65728,-1.72105 -0.37204,-2.94592 1.34813,-5.78907 2.46188,-4.06908 3.24614,-6.8899 3.49249,-12.56176 0.41476,-9.54953 -2.69515,-17.98883 -9.06323,-24.5947 -3.09013,-3.20552 -6.25981,-5.34997 -10.20795,-6.90618 -2.79156,-1.10033 -3.92952,-2.55165 -3.92952,-5.01162 0,-3.80196 3.43713,-5.75232 7.46456,-4.23566 5.49329,2.06868 12.34812,7.26635 16.12303,12.22528 5.14678,6.7611 7.69889,12.9359 8.8362,21.37913 1.25574,9.32249 -0.85695,20.03139 -5.20159,26.36603 -1.35095,1.96973 -4.45679,2.82139 -6.45241,1.76933 z"
       id="path25" /><path
       style="fill:#000000"
       d="m 377.825,-687.71015 c -2.93267,-1.81534 -9.4618,-4.82993 -13.89062,-6.41348 -2.32833,-0.83251 -7.56708,-2.8366 -11.64167,-4.45354 -24.37422,-9.67254 -37.63824,-20.20286 -45.35868,-36.0103 -2.78157,-5.69519 -4.53004,-11.38143 -5.33757,-17.35839 -0.58903,-4.35967 -0.29912,-14.81749 0.46603,-16.81145 0.11087,-0.28891 0.83143,0.85429 2.2027,3.49469 6.69038,12.88237 14.56664,22.26534 29.33297,34.94425 2.94786,2.53114 7.51153,5.95413 17.37164,13.02964 9.44455,6.7773 12.08789,8.86257 16.06372,12.67225 3.44653,3.30251 5.54441,5.78642 8.23534,9.75074 1.97613,2.91127 4.5158,7.5778 4.35639,8.00469 -0.0442,0.11851 -0.85436,-0.26358 -1.80025,-0.8491 z"
       id="path24" /><path
       style="fill:#000000"
       d="m 583.26301,-679.40183 c -2.03113,-0.95368 -3.24409,-3.10298 -2.91689,-5.16856 0.0956,-0.60354 1.00142,-2.59297 2.01293,-4.42096 4.50664,-8.14432 6.60344,-16.54049 6.60344,-26.44201 0,-4.8001 -0.33487,-8.11981 -1.22307,-12.1248 -4.3325,-19.53569 -16.81114,-34.73267 -34.16804,-41.61118 -2.86798,-1.13658 -3.64941,-1.68066 -4.27761,-2.97836 -0.94259,-1.94712 -0.66324,-4.08455 0.72566,-5.5525 2.29528,-2.42592 4.68892,-2.12008 11.98879,1.53182 6.27737,3.14038 11.70294,7.08126 16.76782,12.17939 4.84584,4.87764 7.88453,8.99254 11.43337,15.48272 4.66713,8.53529 6.95138,15.96173 8.13817,26.45833 1.25373,11.08859 -0.53161,23.15526 -4.89793,33.10401 -1.57774,3.59492 -4.40222,8.34386 -5.42787,9.12616 -1.20193,0.91676 -3.30133,1.10026 -4.75877,0.41594 z"
       id="path23" /><path
       style="fill:#000000"
       d="m 381.66146,-671.80491 c -5.9906,-1.86338 -16.32803,-4.01168 -25.92916,-5.38854 -13.33143,-1.91181 -23.71765,-5.27888 -32.41187,-10.50747 -4.15282,-2.49746 -6.65195,-4.46525 -10.3403,-8.14189 -6.29866,-6.27863 -10.17763,-12.84073 -12.79861,-21.65154 -1.01458,-3.41069 -1.83186,-7.18727 -1.60455,-7.41458 0.0735,-0.0735 1.474,1.2363 3.1122,2.91068 7.27148,7.43207 18.04008,14.58028 30.6275,20.33058 4.35215,1.98818 6.05898,2.66519 15.34584,6.08688 11.51959,4.24434 15.79057,6.15751 20.71371,9.27867 6.74288,4.27482 11.19371,8.68937 14.5777,14.45886 0.22506,0.38373 -0.14665,0.39476 -1.29246,0.0384 z"
       id="path22" /><path
       style="fill:#000000"
       d="m 603.47229,-666.22663 c -1.2223,-0.64573 -1.99286,-1.61931 -2.35961,-2.98132 -0.48997,-1.81959 -0.0406,-3.17231 2.32283,-6.99236 4.24775,-6.86571 8.27148,-19.52006 9.48838,-29.84034 0.48042,-4.07434 0.54555,-12.85517 0.12469,-16.81083 -1.57822,-14.83373 -6.30665,-28.15918 -14.17319,-39.94229 -2.95282,-4.42297 -5.15663,-7.13339 -9.11763,-11.2136 -7.5288,-7.75538 -16.24278,-13.85857 -25.93068,-18.16159 -1.67349,-0.7433 -3.60322,-1.59971 -4.28829,-1.90312 -2.16951,-0.96086 -3.12004,-2.36181 -3.12004,-4.59845 0,-1.57439 0.51142,-2.71429 1.6769,-3.73759 1.14588,-1.0061 2.72787,-1.48715 4.06544,-1.23622 3.18806,0.59808 13.66291,6.02164 20.19211,10.45486 4.85002,3.29308 11.81819,9.23865 15.49487,13.22094 11.00034,11.91472 17.68877,24.05831 22.06485,40.06123 2.36463,8.64724 3.0879,13.72498 3.35414,23.54791 0.39009,14.39205 -2.52179,27.74678 -8.97189,41.14775 -2.09928,4.36154 -4.98686,8.65398 -6.14803,9.13915 -1.28678,0.53765 -3.50372,0.46456 -4.67485,-0.15413 z"
       id="path21" /><path
       style="fill:#000000"
       d="m 351.23438,-657.40588 c -4.56722,-0.39661 -12.25006,-2.12082 -16.24767,-3.64637 -8.46852,-3.23171 -15.18915,-8.44268 -21.33912,-16.54569 -1.69197,-2.22929 -4.32503,-6.992 -4.02911,-7.28791 0.0846,-0.0846 1.08891,0.3155 2.23175,0.88917 2.10115,1.0547 8.46597,3.72662 10.49841,4.40717 9.07156,3.03759 21.97583,5.57055 35.10345,6.89042 5.20658,0.52348 7.86765,0.98056 12.25467,2.10494 5.23708,1.34224 8.89074,2.63901 12.45854,4.42182 3.70956,1.85365 5.79606,3.28141 7.8215,5.35213 l 1.44617,1.47851 -2.90138,4.4e-4 c -3.90692,5.9e-4 -10.58175,0.42921 -16.52742,1.06129 -9.15138,0.97289 -10.3731,1.05495 -15.04314,1.01046 -2.56757,-0.0245 -5.14457,-0.0858 -5.72665,-0.13638 z"
       id="path20" /><path
       style="fill:#000000"
       d="m 626.49677,-651.61679 c -1.54373,-0.80645 -2.45296,-1.92845 -2.89597,-3.57366 -0.41281,-1.53308 -0.11057,-2.68734 1.32948,-5.07728 6.13963,-10.18946 10.16598,-21.15187 12.82753,-34.925 1.3868,-7.17651 1.80115,-11.86818 1.77858,-20.13914 -0.0285,-10.4635 -1.05169,-17.85616 -4.13363,-29.86699 -3.52191,-13.72545 -11.06985,-28.67296 -20.37481,-40.34908 -8.02986,-10.07608 -19.1675,-19.78898 -29.685,-25.88767 -3.13196,-1.81609 -11.6364,-5.91915 -15.08932,-7.28 -2.57319,-1.01413 -3.41775,-1.48028 -4.14958,-2.29033 -2.01295,-2.22809 -1.89724,-5.43013 0.26935,-7.45381 0.98884,-0.9236 1.95529,-1.2736 3.51684,-1.2736 1.60957,0 2.04361,0.15219 7.98436,2.79968 10.89067,4.85341 18.72476,9.75282 28.4181,17.77257 10.05931,8.32253 19.85416,19.79769 26.25316,30.75691 7.73612,13.24925 13.02251,27.63544 15.41007,41.93646 1.68157,10.07227 2.27465,21.41651 1.58452,30.30805 -0.38316,4.93655 -1.66986,13.73539 -2.60982,17.84671 -2.2939,10.03341 -6.21041,20.59389 -10.7832,29.07584 -3.20781,5.95008 -3.71224,6.7067 -4.93698,7.4051 -1.79881,1.02578 -3.05255,1.08303 -4.71368,0.21524 z"
       id="path19" /><path
       style="fill:#000000"
       d="m 356.42141,-639.01745 c -6.82712,-0.85474 -14.73161,-4.06445 -20.49389,-8.32179 -2.20106,-1.6262 -6.88741,-5.90367 -6.68727,-6.10381 0.0651,-0.0651 1.58763,0.12275 3.38335,0.41749 5.61541,0.92168 10.18468,1.17061 18.52884,1.00941 4.47877,-0.0865 9.04027,-0.31892 10.79757,-0.5501 4.99203,-0.65674 10.8136,-1.4667 12.53846,-1.74448 6.26597,-1.0091 14.76594,-0.19513 18.93758,1.8135 1.56208,0.75214 3.70147,2.72458 4.99606,4.6062 l 0.80947,1.17653 -1.61571,0.16888 c -2.35718,0.24637 -5.74828,1.15869 -14.33862,3.85758 -10.63444,3.34108 -14.20346,4.01057 -21.05572,3.9497 -2.11387,-0.0188 -4.72392,-0.14438 -5.80012,-0.27911 z"
       id="path18" /><path
       style="fill:#000000"
       d="m 427.56667,-633.50656 c -2.52593,-0.75718 -5.32391,-2.02099 -5.1385,-2.32099 0.0784,-0.12695 0.52257,-0.23238 0.98693,-0.23429 1.89954,-0.008 5.92329,-1.06327 8.03395,-2.10735 2.12002,-1.0487 5.02094,-3.09696 4.75824,-3.35966 -0.0732,-0.0732 -1.66027,0.0504 -3.52692,0.27452 -5.52843,0.66383 -7.74212,0.76156 -10.53766,0.46522 -7.30248,-0.77412 -12.95683,-3.39545 -17.72087,-8.21531 -1.16076,-1.17436 -2.03793,-2.13519 -1.94928,-2.13519 0.0887,0 2.16946,0.48424 4.624,1.07608 5.58187,1.34591 9.73391,1.77231 13.13719,1.34914 2.10861,-0.26219 6.40384,-1.36443 7.19917,-1.84745 0.35744,-0.21707 -0.71967,-0.43364 -6.74542,-1.35622 -2.83765,-0.43447 -6.11187,-1.04171 -7.27604,-1.34944 -2.16179,-0.57142 -6.78505,-2.3716 -9.05508,-3.52581 -2.37873,-1.20948 -6.09134,-3.81734 -8.00664,-5.62413 -2.08446,-1.96638 -5.48924,-6.07008 -7.04705,-8.49365 -1.17523,-1.82837 -3.65285,-6.92697 -3.45987,-7.11995 0.075,-0.0751 1.13778,0.68206 2.36162,1.68245 6.46452,5.28427 15.5471,9.85466 22.81198,11.47909 2.35705,0.52704 9.18209,1.02373 8.82854,0.6425 -0.0996,-0.1074 -1.63462,-0.77973 -3.41115,-1.49408 -5.70939,-2.29575 -11.91489,-5.68074 -17.30985,-9.44222 -10.85257,-7.56665 -17.09637,-17.7694 -19.66516,-32.13412 -0.27975,-1.56435 -0.43437,-2.83731 -0.34361,-2.82881 0.0908,0.009 0.95776,1.10983 1.92665,2.4474 4.34601,5.99966 9.03544,10.85487 14.37796,14.88623 5.14452,3.88197 10.27762,6.96327 21.56354,12.94419 11.31162,5.99455 16.93791,10.27808 21.1274,16.0852 3.30625,4.58284 5.61799,9.97993 6.54037,15.26943 0.48163,2.76199 0.40245,8.81219 -0.13909,10.62772 -0.53875,1.8062 -3.7644,3.89013 -7.12349,4.60213 -2.77203,0.58758 -7.43675,0.47234 -9.82186,-0.24263 z"
       id="path17" /><path
       style="fill:#000000"
       d="m 371.51862,-624.1801 c -5.51177,-0.74474 -11.73234,-2.9779 -15.80347,-5.67339 l -2.3641,-1.56527 3.70416,-0.18671 c 7.04671,-0.35519 15.44721,-2.35378 23.64528,-5.62552 11.24581,-4.48807 16.83573,-5.56919 22.49441,-4.35057 0.63829,0.13746 2.3647,0.8209 3.83646,1.51876 1.47176,0.69785 3.24104,1.49739 3.93171,1.77674 1.2045,0.48717 1.62525,0.89984 0.92704,0.90923 -0.96754,0.013 -5.07053,2.03115 -8.69545,4.27701 -8.30089,5.1429 -13.26829,7.28202 -19.54882,8.41834 -3.53322,0.63925 -9.33241,0.87901 -12.12722,0.50138 z"
       id="path16" /><path
       style="fill:#000000"
       d="m 442.46216,-620.39074 c 3.19696,-3.97743 6.20086,-10.49461 7.34404,-15.93343 0.72903,-3.46843 0.9575,-8.89106 0.52078,-12.36061 -0.72251,-5.74012 -3.23556,-12.65677 -6.24281,-17.18203 -1.94442,-2.92593 -6.8104,-7.8726 -10.1675,-10.33611 -3.78768,-2.77947 -6.25388,-4.25314 -15.06978,-9.00489 -12.54291,-6.76059 -15.45006,-8.50879 -20.51668,-12.33757 -8.41156,-6.35653 -16.70879,-17.63452 -20.84903,-28.33902 -1.038,-2.68372 -2.14456,-6.46335 -1.94941,-6.6585 0.0709,-0.0709 1.4791,0.96162 3.12931,2.2945 3.62436,2.92742 13.399,9.50767 17.95147,12.08487 5.9363,3.36059 15.1878,8.21615 23.21339,12.1833 4.33016,2.14046 8.94458,4.47281 10.25427,5.18301 1.30969,0.71019 3.27422,1.77647 4.36563,2.36951 3.23056,1.75538 9.08708,5.58868 12.4243,8.13214 5.6135,4.27833 10.91039,10.46497 13.69638,15.99707 6.01651,11.94685 6.31867,24.59275 0.86745,36.30371 -3.54295,7.61139 -11.71417,15.71024 -19.18336,19.01347 l -1.42942,0.63216 z"
       id="path15" /><path
       style="fill:#000000"
       d="m 388.40834,-614.81478 c -2.92611,-0.51141 -7.95559,-2.21965 -7.92806,-2.69274 0.005,-0.0893 1.73714,-0.72416 3.84876,-1.41087 5.27501,-1.71548 8.20723,-3.1358 15.55693,-7.53555 6.41479,-3.84009 8.26417,-4.67025 11.90068,-5.34201 1.24081,-0.2292 1.95368,-0.20311 3.57188,0.13075 3.09591,0.63875 6.50704,1.795 6.58834,2.23322 0.12082,0.65124 -2.6074,3.98381 -4.68044,5.71725 -2.7195,2.27399 -6.7406,4.60625 -10.62812,6.16436 -5.40816,2.16758 -9.22952,2.94113 -14.26122,2.88686 -1.81901,-0.0196 -3.60495,-0.0877 -3.96875,-0.15127 z"
       id="path14" /><path
       style="fill:#000000"
       d="m 407.2599,-610.16218 c -0.76399,-0.14958 -1.38906,-0.37669 -1.38906,-0.50469 0,-0.12801 0.8632,-0.72922 1.91823,-1.33604 6.6384,-3.8182 11.38026,-7.2814 15.92242,-11.6289 l 3.7469,-3.58632 3.69216,0.008 c 3.96032,0.008 5.85555,-0.34711 8.44446,-1.58294 0.72199,-0.34465 1.34771,-0.59163 1.39049,-0.54884 0.16186,0.16186 -2.93086,4.84791 -4.11376,6.23312 -4.3163,5.05451 -10.56603,9.44877 -16.18424,11.37931 -4.27262,1.46818 -10.32606,2.17492 -13.4276,1.56769 z"
       id="path13" /><path
       style="fill:#000000"
       d="m 316.45706,-518.0864 c -5.04386,-0.58441 -11.51391,-3.16264 -15.04984,-5.99717 -0.6291,-0.50431 -1.04582,-1.00823 -0.92604,-1.11982 0.11978,-0.11159 1.46794,-0.64014 2.99591,-1.17456 6.53669,-2.28627 11.59055,-4.47973 19.88803,-8.63173 23.42625,-11.72233 41.42008,-24.5014 58.4452,-41.50731 9.16972,-9.15937 12.87226,-13.53579 18.36365,-21.70596 1.71164,-2.54661 3.23552,-4.70795 3.38638,-4.80298 0.15087,-0.095 1.47659,-0.2536 2.94604,-0.35238 10.19938,-0.68565 16.76377,-1.83693 24.25998,-4.25478 12.04855,-3.88618 20.86864,-8.96499 27.29105,-15.71482 5.10924,-5.3697 8.37887,-10.82857 10.62404,-17.73753 1.69429,-5.21376 1.88,-6.58586 1.88,-13.89063 0,-7.34497 -0.26584,-9.50062 -1.7129,-13.88993 -2.49878,-7.57944 -4.85982,-11.67819 -10.28752,-17.8591 l -2.40877,-2.74303 1.02628,-2.46543 c 1.49842,-3.59961 6.24173,-13.50339 7.64348,-15.95917 5.71423,-10.01096 13.30846,-17.04087 21.87901,-20.2532 3.80406,-1.4258 4.84275,-1.72965 7.54063,-2.20591 3.70123,-0.65339 5.87262,-0.75697 9.03595,-0.43106 6.61368,0.68139 12.986,2.94636 18.83878,6.69603 l 2.07786,1.33121 1.36172,-0.34514 c 0.74895,-0.18982 3.20719,-0.93331 5.46277,-1.65219 2.25557,-0.71889 5.41964,-1.58254 7.03127,-1.91923 3.30236,-0.68991 7.80759,-1.13832 7.38852,-0.7354 -0.14552,0.13991 -1.8124,1.30736 -3.70417,2.59434 -5.62266,3.8251 -9.25547,6.62857 -12.66117,9.77074 -3.41045,3.14656 -10.48987,10.35883 -10.48987,10.68673 0,0.1073 2.7682,0.52219 6.15156,0.92197 8.615,1.01796 17.36763,2.5513 21.58365,3.78115 l 1.50125,0.43793 -6.74688,1.69226 c -7.08005,1.77583 -9.01696,2.50082 -10.41426,3.89813 -3.71,3.71 -6.93524,10.21196 -8.22205,16.57533 -1.0566,5.22497 -1.30529,9.23165 -1.0416,16.78131 0.65028,18.61749 -0.0504,26.41592 -3.34726,37.25193 -3.90685,12.84107 -9.74927,22.48584 -19.13369,31.58619 -5.32648,5.16525 -10.42449,9.0374 -16.84322,12.79315 -1.81901,1.06434 -3.64676,2.13692 -4.06167,2.3835 l -0.75439,0.44834 2.22936,1.07907 c 4.25678,2.06041 6.677,4.41832 7.61666,7.42058 0.82563,2.6379 0.59472,5.74029 -0.60343,8.10741 -1.21292,2.39631 -5.27815,5.413 -7.86611,5.83721 -0.7121,0.11673 -0.82532,0.0871 -0.49007,-0.12841 0.23979,-0.15412 0.87133,-0.9361 1.40343,-1.73774 2.7905,-4.20407 2.67614,-9.16927 -0.27079,-11.75671 -2.95373,-2.59341 -9.57146,-4.23681 -14.02602,-3.48313 -2.03884,0.34495 -5.14341,1.29429 -5.12633,1.56757 0.006,0.0973 1.32411,0.80781 2.92895,1.57896 2.4219,1.16377 3.2455,1.72595 4.84511,3.30729 1.50045,1.48332 2.0603,2.25673 2.52824,3.4927 1.17727,3.10951 0.90203,7.34465 -0.62763,9.65729 -1.65385,2.50039 -5.37354,4.93408 -7.99252,5.22928 l -1.25778,0.14177 1.27782,-1.56105 c 0.70279,-0.85857 1.64662,-2.33495 2.09739,-3.28084 0.71721,-1.50499 0.81958,-2.00067 0.81958,-3.96875 0,-1.96272 -0.0899,-2.40049 -0.70588,-3.43958 -2.11088,-3.56047 -5.30254,-5.00654 -11.95825,-5.41799 -4.37202,-0.27028 -4.36249,-0.2497 -1.14059,-2.46285 4.42823,-3.04179 6.40856,-5.32277 7.93794,-9.14309 1.41248,-3.52831 1.88934,-8.50488 1.03077,-10.75732 -0.23257,-0.61014 -0.36566,-0.43567 -1.71562,2.24896 -5.02913,10.00133 -12.95456,16.22 -24.00775,18.83763 -2.52924,0.59897 -3.57217,0.67758 -11.64166,0.8775 -9.44062,0.23389 -12.92929,0.49546 -17.61796,1.32097 -2.66445,0.46911 -8.16413,1.92452 -10.06481,2.6635 -0.41797,0.1625 -2.05559,0.76248 -3.63915,1.3333 l -2.87922,1.03784 0.64861,-0.86454 c 3.39159,-4.52066 3.91739,-5.44542 6.54673,-11.51421 1.8821,-4.34408 3.8226,-9.579 3.62429,-9.77732 -0.0592,-0.0593 -2.36459,2.60759 -5.12298,5.9263 -13.0703,15.72533 -22.32227,25.66977 -30.76218,33.06459 -15.75101,13.80063 -29.11019,21.11882 -40.70772,22.2998 -3.03638,0.30919 -3.2926,0.30845 -6.10814,-0.0178 z"
       id="path7" /><path
       style="fill:#000000"
       d="m 503.93996,-702.0693 c 1.52076,-0.45162 3.13168,-1.86478 3.71374,-3.25783 0.51755,-1.23867 0.48544,-3.51533 -0.066,-4.67734 -1.24714,-2.62815 -4.80713,-4.01158 -7.46758,-2.90194 -4.99708,2.08422 -4.93529,8.73366 0.0994,10.69971 1.59193,0.62165 2.03468,0.638 3.72039,0.1374 z"
       id="path6" /><path
       style="fill:#000000"
       d="m 364.11824,-502.60548 c -0.22031,-0.1 1.96185,-2.40964 6.02826,-6.38051 9.19037,-8.97443 12.72934,-13.55704 26.82272,-34.73279 4.01929,-6.03912 7.59484,-11.41137 7.94566,-11.93834 0.52055,-0.78194 0.84956,-0.98935 1.78909,-1.12788 1.89455,-0.27935 6.35625,-0.67798 7.67013,-0.68529 l 1.22723,-0.007 -1.70366,2.97657 c -0.93701,1.63711 -4.36263,8.2898 -7.61248,14.78376 -3.24985,6.49395 -6.41813,12.6852 -7.04061,13.75833 -2.11784,3.65104 -6.31124,9.61682 -8.54974,12.16336 -4.87045,5.54068 -10.95846,9.28463 -17.36775,10.68067 -2.00236,0.43614 -8.5695,0.79909 -9.20885,0.50895 z"
       id="path5" /><path
       style="fill:#000000"
       d="m 330.29038,-499.90764 c -2.05672,-0.39186 -4.51424,-1.14395 -4.69531,-1.43693 -0.19,-0.30742 2.20972,-3.00199 5.00181,-5.61636 1.45521,-1.36258 4.84849,-4.62583 7.54063,-7.25165 4.71214,-4.59608 5.01304,-4.8369 8.06377,-6.45371 8.47484,-4.49143 13.13662,-7.95236 23.52188,-17.46271 6.55781,-6.00534 8.1644,-7.30136 11.54143,-9.31029 5.44759,-3.24068 15.53325,-7.82193 16.06013,-7.29505 0.16516,0.16516 -1.35974,2.47774 -5.08279,7.70827 -1.0358,1.4552 -3.44981,4.84849 -5.36447,7.54062 -11.46579,16.12169 -17.75856,23.62536 -24.66287,29.40869 -4.83206,4.04753 -12.81213,8.22789 -18.65313,9.77145 -2.74009,0.72411 -10.35943,0.95242 -13.27108,0.39767 z"
       id="path4" /></g></svg>
